<svg xmlns="http://www.w3.org/2000/svg" viewBox="0 0 315.13 340.76"><defs><style>.cls-1{fill:#970102;}.cls-2{fill:#97c2ff;}.cls-3{fill:none;stroke:#3365ab;stroke-width:8px;}</style></defs><g id="图层_2" data-name="图层 2"><g id="图层_3" data-name="图层 3"><polygon class="cls-1" points="73.97 56.86 6.83 184.9 33.68 184.9 79.84 94.77 97.46 113.3 64.73 184.9 91.59 184.9 158.73 42.54 224.19 184.9 252.72 184.9 216.63 113.72 235.93 93.93 281.25 184.9 308.11 184.9 241.81 58.55 205.72 99.4 157.47 0 108.37 92.24 73.97 56.86"/><polygon class="cls-2" points="238.21 309.41 305.35 245.02 278.5 245.02 232.34 290.35 214.72 281.03 247.45 245.02 220.59 245.02 153.45 316.61 88 245.02 59.46 245.02 95.55 280.82 76.25 290.77 30.93 245.02 4.08 245.02 70.37 308.56 106.46 290.77 154.71 340.76 203.81 291.62 238.21 309.41"/><path class="cls-3" d="M2.14,194.11c34.48,21.78,76.17,21.84,106.58,0"/><path class="cls-3" d="M103.27,194.11c34.49,21.78,76.18,21.84,106.58,0"/><path class="cls-3" d="M204.51,194.11c34.49,21.78,76.18,21.84,106.58,0"/><path class="cls-3" d="M3.94,216.17c43.33,27.37,84,16.26,106.57,0"/><path class="cls-3" d="M104.92,216.3c34.48,21.78,76.17,21.84,106.58,0"/><path class="cls-3" d="M206.22,216.3c34.49,21.78,76.18,21.84,106.58,0"/></g></g></svg>