<svg xmlns="http://www.w3.org/2000/svg" viewBox="0 0 18.1 18.1"><defs><style>.cls-1,.cls-2{fill:none;stroke:#000;stroke-miterlimit:10;}.cls-2{stroke-width:0.8px;}</style></defs><g id="图层_2" data-name="图层 2"><g id="图层_2-2" data-name="图层 2"><circle class="cls-1" cx="9.05" cy="9.05" r="2.44"/><circle class="cls-1" cx="9.05" cy="9.05" r="5.8"/><path class="cls-2" d="M17.7,8.06v2a1.12,1.12,0,0,1-1.12,1.12H15.47a.55.55,0,0,0-.39.94l.79.79a1.13,1.13,0,0,1,0,1.58l-1.4,1.4a1.13,1.13,0,0,1-1.58,0l-.79-.79a.55.55,0,0,0-.94.39v1.11A1.12,1.12,0,0,1,10,17.7h-2a1.12,1.12,0,0,1-1.12-1.12v-1.1A.54.54,0,0,0,6,15.09l-.78.78a1.14,1.14,0,0,1-1.59,0l-1.4-1.4a1.13,1.13,0,0,1,0-1.58L3,12.1a.55.55,0,0,0-.39-.94H1.52A1.12,1.12,0,0,1,.4,10v-2A1.12,1.12,0,0,1,1.52,6.94H2.63A.55.55,0,0,0,3,6l-.79-.78a1.14,1.14,0,0,1,0-1.59l1.4-1.4a1.14,1.14,0,0,1,1.59,0L6,3a.54.54,0,0,0,.93-.38V1.52A1.12,1.12,0,0,1,8.05.4h2a1.12,1.12,0,0,1,1.12,1.12V2.63A.55.55,0,0,0,12.1,3l.79-.79a1.13,1.13,0,0,1,1.58,0l1.4,1.4a1.14,1.14,0,0,1,0,1.59L15.08,6a.55.55,0,0,0,.39.94h1.11A1.12,1.12,0,0,1,17.7,8.06Z"/></g></g></svg>