<svg xmlns="http://www.w3.org/2000/svg" viewBox="0 0 446 484.94">
    <defs>
        <style>
            .cls-1{fill:#2e45e8;stroke:#2e45e8;stroke-miterlimit:10;stroke-width:5px;}.cls-2{fill:#7d8dff;}.cls-3{fill:#5a6eff;}.cls-4{fill:#394eea;}
        </style>
    </defs>
    <g id="图层_2" data-name="图层 2">
        <g id="图层_1-2" data-name="图层 1">
            <path class="cls-1" d="M305.35,232.38l3.79-3.91,23.63,19.73-23.63,19.72-3.79-3.87,19.16-15.78Z"/>
            <path class="cls-1" d="M377.17,281.77H337.59v-5.06h39.58Z"/>
            <path class="cls-1"
                  d="M412.22,254.91a11.83,11.83,0,0,1-1.33,5.73,11.7,11.7,0,0,1-3.73,4.1,17.21,17.21,0,0,1-5.75,2.44,31.54,31.54,0,0,1-7.4.81c-1.22,0-2.43-.05-3.64-.14s-2.36-.21-3.48-.35-2.16-.31-3.14-.49-1.88-.39-2.68-.6v-6.05a33,33,0,0,0,5.93,1.55,45.13,45.13,0,0,0,7.47.56,24.51,24.51,0,0,0,5.15-.47,10,10,0,0,0,3.48-1.41,5.6,5.6,0,0,0,2-2.27,7.24,7.24,0,0,0,.61-3.06,5,5,0,0,0-1-3.18,10.1,10.1,0,0,0-2.73-2.35,24.66,24.66,0,0,0-3.85-1.9l-4.41-1.78q-2.25-.92-4.41-2a18.46,18.46,0,0,1-3.85-2.53,11.92,11.92,0,0,1-2.73-3.43,9.92,9.92,0,0,1-1-4.68,11.58,11.58,0,0,1,1-4.64,11.19,11.19,0,0,1,3.06-4.06,15.75,15.75,0,0,1,5.33-2.86,24.35,24.35,0,0,1,7.75-1.09c.77,0,1.61,0,2.51.1s1.82.17,2.74.3,1.84.28,2.75.44,1.74.34,2.51.53v5.62a44,44,0,0,0-5.41-1.18,35.53,35.53,0,0,0-5.24-.4q-5.39,0-7.91,1.79a5.61,5.61,0,0,0-2.53,4.82,5.07,5.07,0,0,0,1,3.2,10.2,10.2,0,0,0,2.73,2.39,23.81,23.81,0,0,0,3.85,1.91l4.41,1.78q2.25.91,4.41,2a17.89,17.89,0,0,1,3.85,2.59,12,12,0,0,1,2.73,3.5A10.17,10.17,0,0,1,412.22,254.91Z"/>
            <path class="cls-2"
                  d="M435,165c-1-3.15-1.94-6.32-3-9.47l-3.31-9.4-3.75-9.3-4.11-9.21c-1.44-3-3-6-4.52-9.08s-3.27-6-4.9-9-3.56-5.87-5.34-8.82-3.82-5.76-5.74-8.66A227.83,227.83,0,0,0,373,59.45c-2.66-2.49-5.35-5-8.07-7.46s-5.6-4.84-8.51-7.18l-4.47-3.44c-1.5-1.13-3-2.32-4.55-3.37l-4.71-3.24-2.37-1.62-2.45-1.51c-3.3-2-6.56-4.1-10-5.92l-5.15-2.84c-1.72-1-3.54-1.75-5.32-2.64L312,17.64l-5.56-2.32c-1.87-.76-3.71-1.6-5.63-2.27L295,11A205.06,205.06,0,0,0,246,.72a213.49,213.49,0,0,0-51.6,2L188,3.84c-2.16.37-4.24.9-6.37,1.36l-6.37,1.44L169,8.39c-2.08.61-4.21,1.14-6.25,1.83l-6.14,2.07c-4.16,1.32-8.06,3-12.07,4.64l-3,1.24-2.91,1.34-5.81,2.73c-2,.88-3.8,1.91-5.69,2.89l-5.63,3c-3.7,2.06-7.28,4.27-10.92,6.44s-6.95,4.65-10.41,7c-3.3,2.48-6.66,4.95-9.93,7.5S83.84,54.32,80.76,57l-4.54,4.13L74,63.22c-.76.69-1.51,1.38-2.21,2.11l-4.25,4.33c-1.4,1.46-2.89,2.88-4.19,4.39a244.09,244.09,0,0,0-49.12,79.6C3.38,182.33.11,212.42,0,242.36c.09,29.93,3.28,60,14,88.74q3.6,9.61,8.06,19L77.36,344a220,220,0,0,1-10.88-26.74,239.66,239.66,0,0,1,0-149.74,217.79,217.79,0,0,1,37-67.92A207.84,207.84,0,0,1,131.31,71a188.84,188.84,0,0,1,33.88-22.69,179.64,179.64,0,0,1,38.89-14.87,173.59,173.59,0,0,1,84-.45,181.06,181.06,0,0,1,39.29,14.52,195.27,195.27,0,0,1,62.83,51,219.79,219.79,0,0,1,37.67,68.34,234.14,234.14,0,0,1,0,151,220.15,220.15,0,0,1-37.67,68.33,195.15,195.15,0,0,1-62.84,51,180.65,180.65,0,0,1-39.28,14.52,173.55,173.55,0,0,1-84-.45,178.93,178.93,0,0,1-38.89-14.87,187.79,187.79,0,0,1-33.88-22.69,201.59,201.59,0,0,1-15.09-14.09l.08.56-57.12,6.32q1.92,2.19,3.9,4.34A239.46,239.46,0,0,0,100,443.29c3.46,2.38,6.92,4.74,10.41,7,1.79,1.12,3.62,2.2,5.44,3.28s3.59,2.18,5.48,3.18l5.64,3c1.89,1,3.73,2,5.7,2.9l5.82,2.72,2.91,1.35,3,1.24c4,1.6,7.92,3.33,12.07,4.66l6.15,2.07c2,.7,4.18,1.23,6.26,1.84l6.27,1.74,6.38,1.45c2.14.45,4.23,1,6.38,1.36l6.45,1.09a214.56,214.56,0,0,0,51.67,2,205,205,0,0,0,49.06-10.33l5.77-2c1.91-.68,3.76-1.52,5.63-2.28l5.56-2.33,5.39-2.59c1.78-.89,3.6-1.69,5.32-2.64l5.16-2.85c3.46-1.84,6.72-3.94,10-5.94l2.46-1.52,2.37-1.63,4.71-3.24c1.59-1.05,3.05-2.24,4.55-3.38l4.47-3.43c2.91-2.35,5.68-4.82,8.5-7.21s5.41-5,8.07-7.47,5.1-5.16,7.56-7.79,4.79-5.34,7.06-8.07,4.46-5.51,6.59-8.31,4.22-5.6,6.18-8.48,3.9-5.75,5.73-8.67,3.66-5.84,5.33-8.82,3.33-6,4.9-9,3.08-6,4.52-9.09l4.09-9.21,3.75-9.3,3.3-9.41c1.05-3.15,2-6.32,3-9.47A278.4,278.4,0,0,0,435,165Z"/>
            <path class="cls-3"
                  d="M440.55,235.34c0-2.6-.26-5.19-.39-7.79s-.4-5.18-.61-7.77c-.12-1.29-.21-2.59-.36-3.88L438.7,212l-.5-3.87-.6-3.86c-.42-2.57-.76-5.16-1.31-7.71-1-5.12-2.16-10.2-3.49-15.26-.72-2.51-1.41-5-2.17-7.54l-2.36-7.5-2.66-7.42c-1-2.44-2-4.87-3-7.32A208.57,208.57,0,0,0,408,123.36a180.86,180.86,0,0,0-19.54-25.72,154.27,154.27,0,0,0-24.86-21.79c-2.32-1.55-4.62-3.19-7.06-4.6l-3.63-2.2c-1.2-.74-2.48-1.36-3.73-2l-3.78-2-3.9-1.79c-1.31-.58-2.6-1.23-3.94-1.75l-4-1.55a128.64,128.64,0,0,0-34.17-7.74c-3.26-.27-6.55-.41-9.85-.43l24.9,20.57a113.45,113.45,0,0,1,14.82,3A119.39,119.39,0,0,1,357.08,87c17.59,10.08,32.66,24.39,44.55,40.91a184.12,184.12,0,0,1,26.7,54.76,211.17,211.17,0,0,1,0,120.92,184.24,184.24,0,0,1-26.7,54.76c-11.89,16.51-27,30.83-44.56,40.9a119.14,119.14,0,0,1-27.88,11.67,109.5,109.5,0,0,1-59.65-.32,118.71,118.71,0,0,1-27.64-11.91,133.93,133.93,0,0,1-24.08-18.19A159.31,159.31,0,0,1,198,357.62a182.69,182.69,0,0,1-26.27-54.46,215.53,215.53,0,0,1,0-120.07A182.57,182.57,0,0,1,198,128.63a159.24,159.24,0,0,1,19.79-22.88,133.93,133.93,0,0,1,24.08-18.19A122.18,122.18,0,0,1,259.62,79L238.43,61.47c-3.16,1.25-6.29,2.61-9.35,4.1l-2.06,1-2,1.07-4,2.17c-1.35.7-2.62,1.52-3.92,2.3l-3.88,2.38c-2.55,1.64-5,3.39-7.52,5.11s-4.79,3.69-7.17,5.56-4.6,3.92-6.84,5.93-4.4,4.13-6.53,6.26-4.2,4.31-6.19,6.56-3.94,4.54-5.8,6.9a199.19,199.19,0,0,0-33.78,62.63A230.89,230.89,0,0,0,131,207.9l-.68,4.38c-.21,1.46-.35,2.93-.53,4.39-.31,2.94-.73,5.86-.88,8.81s-.43,5.88-.51,8.82l-.21,8.83A233.87,233.87,0,0,0,131,278.36l.69,4.38c.24,1.46.55,2.91.85,4.36.62,2.89,1.17,5.79,1.94,8.66,1.38,5.76,3,11.45,4.84,17.1a197.74,197.74,0,0,0,14,32.78,187.4,187.4,0,0,0,19.75,29.92,171.94,171.94,0,0,0,25.36,25.68A153,153,0,0,0,229,420.84a136,136,0,0,0,70.32,13.39,128.65,128.65,0,0,0,34.21-7.76,136.74,136.74,0,0,0,30.09-16l1.73-1.18,1.68-1.26,3.32-2.54c1.12-.81,2.16-1.74,3.22-2.63l3.16-2.69c2.06-1.84,4-3.77,6-5.65l5.73-5.86c1.8-2.06,3.62-4.07,5.37-6.14s3.4-4.21,5-6.36,3.17-4.35,4.69-6.56,3-4.42,4.44-6.69a209.83,209.83,0,0,0,24.8-58c1.33-5.06,2.53-10.14,3.48-15.27.56-2.54.9-5.13,1.31-7.7l.6-3.86.5-3.87.5-3.87c.15-1.29.23-2.59.35-3.88.21-2.6.51-5.18.61-7.78s.35-5.18.39-7.78l.12-7.79Z"/>
            <path class="cls-4"
                  d="M428.31,204.43a132.4,132.4,0,0,0-14.57-35.92A116.31,116.31,0,0,0,402,152.24a97.87,97.87,0,0,0-15.16-14.08,87.38,87.38,0,0,0-18.72-10.66,81.77,81.77,0,0,0-21.7-5.58,87.42,87.42,0,0,0-45.56,7.43c-.91.38-1.79.81-2.66,1.26L295.61,132c-1.75.9-3.41,1.93-5.12,2.91S287.2,137,285.54,138s-3.14,2.31-4.7,3.49-3,2.47-4.5,3.74-2.89,2.6-4.29,3.94-2.77,2.73-4.09,4.15-2.58,2.88-3.8,4.37a125.68,125.68,0,0,0-22.3,39.91,139.59,139.59,0,0,0-7.35,44.59c0,.38,0,.76,0,1.15h0c0,3,.16,6.08.38,9.11l0,6.44-.13,32.62-.12,32.63-.07,16.31,3.34,4.09c1.18,1.36,2.3,2.73,3.56,4.09s2.5,2.73,3.82,4.09l2.07,2.05,1,1,1.11,1,1.12-1,1-1,2.09-2c1.32-1.36,2.62-2.71,3.84-4.07s2.4-2.71,3.6-4.06l3.36-4.07.05-13.14A108.55,108.55,0,0,0,280.74,343a97.31,97.31,0,0,0,20.08,12.21,87.26,87.26,0,0,0,45.63,7.43,81.54,81.54,0,0,0,21.73-5.6c1.94-.79,3.83-1.66,5.67-2.59l4.21-16a67.34,67.34,0,0,1-66.19-2.23,81,81,0,0,1-14.49-11,97,97,0,0,1-11.92-13.83,110.13,110.13,0,0,1-15.83-32.91,126.06,126.06,0,0,1-4.73-26.14v-6.59a3,3,0,0,1,.11-1c.22-.68.54-1.36.06-2l-.6-.76a128.69,128.69,0,0,1,5.12-36A110.39,110.39,0,0,1,285.46,173a95.87,95.87,0,0,1,11.92-13.83,80.56,80.56,0,0,1,14.49-11,67.52,67.52,0,0,1,69.44-.48,86.5,86.5,0,0,1,27,24.69,111.36,111.36,0,0,1,16.2,33.16,127.14,127.14,0,0,1,0,73.32,111.36,111.36,0,0,1-16.2,33.16,90,90,0,0,1-17.83,18.56l-4.29,16.29.74-.52A103,103,0,0,0,413.77,316a132.47,132.47,0,0,0,14.55-36,158.11,158.11,0,0,0,0-75.6Z"/>
        </g>
    </g>
</svg>